# This file uses centimeters as units for non-parametric coordinates.

mtllib d14_Uv_2.mtl
g default
v 0.970009 1.319803 1.934449
v 0.986987 2.322191 1.961480
v 0.965773 3.325109 1.933059
v 1.382794 0.891732 1.319571
v 1.470243 2.322218 1.333302
v 1.383663 3.754124 1.320928
v 2.333017 1.779249 -0.014043
v 2.370567 2.322184 -0.014255
v 2.332142 2.864570 -0.014217
v -0.973283 3.328888 -1.970690
v 0.000000 3.345189 -1.992371
v 0.973283 3.328888 -1.970690
v -1.385029 3.754689 -1.349170
v 0.000000 3.844685 -1.356956
v 1.385029 3.754690 -1.349170
v -0.518834 4.748642 -0.014816
v 0.000000 4.781190 -0.014255
v 0.518834 4.748642 -0.014816
v -0.970009 1.319803 1.934449
v 0.000000 1.298215 1.964961
v -1.382794 0.891732 1.319570
v 0.000000 0.798883 1.328949
v -0.522227 -0.095500 -0.014391
v 0.000000 -0.134271 -0.014255
v 0.522227 -0.095500 -0.014391
v 0.972117 1.315562 -1.969839
v 0.000000 1.298871 -1.992736
v -0.972117 1.315562 -1.969839
v 1.383296 0.891011 -1.348367
v 0.000000 0.801483 -1.356197
v -1.383296 0.891012 -1.348367
v 0.989485 2.322191 -1.992894
v 1.472199 2.322243 -1.356570
v -0.989485 2.322191 -1.992894
v 0.000000 2.322192 -2.000000
v -0.965771 3.325108 1.933060
v -0.986987 2.322191 1.961484
v -1.383663 3.754124 1.320929
v -1.470243 2.322218 1.333302
v -2.332142 2.864570 -0.014217
v -2.370567 2.322184 -0.014255
v -2.333017 1.779249 -0.014043
v 0.000000 2.322192 1.971489
v 0.000000 3.345405 1.964106
v -1.472199 2.322243 -1.356570
v 0.000000 3.843332 1.323667
vt 0.610567 0.178012
vt 0.464672 0.179726
vt 0.464654 0.101714
vt 0.568734 0.103248
vt 0.318382 0.177892
vt 0.360892 0.102725
vt 0.464380 0.346008
vt 0.515117 0.345973
vt 0.414072 0.345759
vt 0.801184 0.354996
vt 0.659928 0.357115
vt 0.659928 0.278031
vt 0.760651 0.279396
vt 0.518286 0.354936
vt 0.559626 0.278847
vt 0.659928 0.525373
vt 0.709033 0.525279
vt 0.611175 0.525244
vt 0.282529 0.619042
vt 0.141462 0.621150
vt 0.141462 0.542176
vt 0.242056 0.543538
vt 0.000000 0.618973
vt 0.041287 0.542990
vt 0.141462 0.789202
vt 0.190504 0.789099
vt 0.092771 0.789074
vt 0.752925 0.620548
vt 0.611770 0.622657
vt 0.611770 0.543630
vt 0.712421 0.544993
vt 0.470230 0.620479
vt 0.511540 0.544445
vt 0.611770 0.790794
vt 0.660839 0.790699
vt 0.563053 0.790665
vt 0.335244 0.112810
vt 0.201532 0.102589
vt 0.201921 0.003173
vt 0.294257 0.039586
vt 0.067904 0.112017
vt 0.109324 0.039037
vt 0.201112 0.275979
vt 0.249952 0.267077
vt 0.152279 0.266788
vt 0.455977 0.791640
vt 0.456588 0.890594
vt 0.360529 0.891098
vt 0.360529 0.791747
vt 0.264470 0.891601
vt 0.264462 0.792456
vt 0.456604 0.989739
vt 0.360529 0.990448
vt 0.265080 0.990555
vt 0.539747 0.447689
vt 0.393858 0.449403
vt 0.393832 0.371390
vt 0.497913 0.372924
vt 0.247566 0.447569
vt 0.290077 0.372401
vt 0.393558 0.615687
vt 0.444296 0.615653
vt 0.343249 0.615439
vt 0.781648 0.787207
vt 0.781009 0.685018
vt 0.880199 0.684498
vt 0.880199 0.787087
vt 0.979390 0.683978
vt 0.979407 0.786355
vt 0.781000 0.582641
vt 0.880199 0.581909
vt 0.978759 0.581798
vt 0.277468 0.377628
vt 0.141968 0.365752
vt 0.143481 0.264917
vt 0.236746 0.302903
vt 0.006374 0.373753
vt 0.049216 0.300223
vt 0.139526 0.541553
vt 0.189204 0.533088
vt 0.090159 0.531672
vt 0.954445 0.094204
vt 0.813417 0.096312
vt 0.813417 0.017351
vt 0.913984 0.018722
vt 0.671996 0.094136
vt 0.713271 0.018165
vt 0.813417 0.264308
vt 0.862445 0.264214
vt 0.764732 0.264188
vt 0.463397 0.986365
vt 0.462956 0.797448
vt 0.651874 0.798214
vt 0.652098 0.986923
vt 0.054539 0.993179
vt 0.054435 0.804082
vt 0.243704 0.803979
vt 0.243636 0.993282
vt 0.802436 0.551459
vt 0.802367 0.362709
vt 0.991084 0.362468
vt 0.991325 0.551356
vt 0.850343 0.803686
vt 0.850274 0.992964
vt 0.660997 0.992723
vt 0.661238 0.803617
vn 0.658270 -0.635919 0.402850
vn 0.821290 0.000105 0.570511
vn 0.446216 0.000618 0.894925
vn 0.341722 -0.330184 0.879889
vn 0.821290 0.000105 0.570511
vn 0.657981 0.635622 0.403789
vn 0.340191 0.331321 0.880055
vn 0.446216 0.000618 0.894925
vn 1.000000 -0.000285 0.000520
vn 0.821290 0.000105 0.570511
vn 0.658270 -0.635919 0.402850
vn 0.893083 -0.449892 0.000405
vn 0.893382 0.449298 0.000578
vn 0.657981 0.635622 0.403789
vn 0.821290 0.000105 0.570511
vn 1.000000 -0.000285 0.000520
vn -0.658914 0.635628 -0.402256
vn 0.000000 0.811754 -0.584000
vn 0.000000 0.436330 -0.899787
vn -0.341628 0.330404 -0.879843
vn 0.000000 0.811754 -0.584000
vn 0.658914 0.635628 -0.402256
vn 0.341628 0.330404 -0.879843
vn 0.000000 0.436330 -0.899787
vn 0.000000 1.000000 0.000183
vn 0.000000 0.811754 -0.584000
vn -0.658914 0.635628 -0.402256
vn -0.475225 0.879864 0.000401
vn 0.475225 0.879864 0.000401
vn 0.658914 0.635628 -0.402256
vn 0.000000 0.811754 -0.584000
vn 0.000000 1.000000 0.000183
vn -0.658270 -0.635919 0.402850
vn 0.000000 -0.812050 0.583588
vn 0.000001 -0.435052 0.900405
vn -0.341722 -0.330185 0.879888
vn 0.000000 -0.812050 0.583588
vn 0.658270 -0.635919 0.402850
vn 0.341722 -0.330184 0.879889
vn 0.000001 -0.435052 0.900405
vn 0.000000 -1.000000 -0.000718
vn 0.000000 -0.812050 0.583588
vn -0.658270 -0.635919 0.402850
vn -0.475118 -0.879922 -0.000126
vn 0.475118 -0.879922 -0.000126
vn 0.658270 -0.635919 0.402850
vn 0.000000 -0.812050 0.583588
vn 0.000000 -1.000000 -0.000718
vn 0.658392 -0.636261 -0.402109
vn 0.000000 -0.813099 -0.582125
vn 0.000000 -0.436972 -0.899475
vn 0.342124 -0.331230 -0.879339
vn 0.000000 -0.813099 -0.582125
vn -0.658392 -0.636261 -0.402109
vn -0.342124 -0.331231 -0.879339
vn 0.000000 -0.436972 -0.899475
vn 0.000000 -1.000000 -0.000718
vn 0.000000 -0.813099 -0.582125
vn 0.658392 -0.636261 -0.402109
vn 0.475118 -0.879922 -0.000126
vn -0.475118 -0.879922 -0.000126
vn -0.658392 -0.636261 -0.402109
vn 0.000000 -0.813099 -0.582125
vn 0.000000 -1.000000 -0.000718
vn 0.658914 0.635628 -0.402256
vn 0.823078 -0.000451 -0.567928
vn 0.448435 -0.000437 -0.893815
vn 0.341628 0.330404 -0.879843
vn 0.823078 -0.000451 -0.567928
vn 0.658392 -0.636261 -0.402109
vn 0.342124 -0.331230 -0.879339
vn 0.448435 -0.000437 -0.893815
vn 1.000000 -0.000285 0.000520
vn 0.823078 -0.000451 -0.567928
vn 0.658914 0.635628 -0.402256
vn 0.893382 0.449298 0.000578
vn 0.893083 -0.449892 0.000405
vn 0.658392 -0.636261 -0.402109
vn 0.823078 -0.000451 -0.567928
vn 1.000000 -0.000285 0.000520
vn -0.342124 -0.331231 -0.879339
vn -0.448435 -0.000437 -0.893815
vn 0.000000 -0.000122 -1.000000
vn 0.000000 -0.436972 -0.899475
vn 0.000000 -0.436972 -0.899475
vn 0.000000 -0.000122 -1.000000
vn 0.448435 -0.000437 -0.893815
vn 0.342124 -0.331230 -0.879339
vn -0.448435 -0.000437 -0.893815
vn -0.341628 0.330404 -0.879843
vn 0.000000 0.436330 -0.899787
vn 0.000000 -0.000122 -1.000000
vn 0.000000 -0.000122 -1.000000
vn 0.000000 0.436330 -0.899787
vn 0.341628 0.330404 -0.879843
vn 0.448435 -0.000437 -0.893815
vn -0.657982 0.635622 0.403789
vn -0.821290 0.000105 0.570510
vn -0.446216 0.000618 0.894925
vn -0.340190 0.331322 0.880055
vn -0.821290 0.000105 0.570510
vn -0.658270 -0.635919 0.402850
vn -0.341722 -0.330185 0.879888
vn -0.446216 0.000618 0.894925
vn -1.000000 -0.000285 0.000520
vn -0.821290 0.000105 0.570510
vn -0.657982 0.635622 0.403789
vn -0.893382 0.449298 0.000578
vn -0.893083 -0.449892 0.000405
vn -0.658270 -0.635919 0.402850
vn -0.821290 0.000105 0.570510
vn -1.000000 -0.000285 0.000520
vn 0.341722 -0.330184 0.879889
vn 0.446216 0.000618 0.894925
vn 0.000001 0.000558 1.000000
vn 0.000001 -0.435052 0.900405
vn 0.000001 -0.435052 0.900405
vn 0.000001 0.000558 1.000000
vn -0.446216 0.000618 0.894925
vn -0.341722 -0.330185 0.879888
vn 0.446216 0.000618 0.894925
vn 0.340191 0.331321 0.880055
vn 0.000001 0.436663 0.899625
vn 0.000001 0.000558 1.000000
vn 0.000001 0.000558 1.000000
vn 0.000001 0.436663 0.899625
vn -0.340190 0.331322 0.880055
vn -0.446216 0.000618 0.894925
vn -0.658392 -0.636261 -0.402109
vn -0.823078 -0.000451 -0.567928
vn -0.448435 -0.000437 -0.893815
vn -0.342124 -0.331231 -0.879339
vn -0.823078 -0.000451 -0.567928
vn -0.658914 0.635628 -0.402256
vn -0.341628 0.330404 -0.879843
vn -0.448435 -0.000437 -0.893815
vn -1.000000 -0.000285 0.000520
vn -0.823078 -0.000451 -0.567928
vn -0.658392 -0.636261 -0.402109
vn -0.893083 -0.449892 0.000405
vn -0.893382 0.449298 0.000578
vn -0.658914 0.635628 -0.402256
vn -0.823078 -0.000451 -0.567928
vn -1.000000 -0.000285 0.000520
vn 0.657981 0.635622 0.403789
vn 0.000000 0.810503 0.585734
vn 0.000001 0.436663 0.899625
vn 0.340191 0.331321 0.880055
vn 0.000000 0.810503 0.585734
vn -0.657982 0.635622 0.403789
vn -0.340190 0.331322 0.880055
vn 0.000001 0.436663 0.899625
vn 0.000000 1.000000 0.000183
vn 0.000000 0.810503 0.585734
vn 0.657981 0.635622 0.403789
vn 0.475225 0.879864 0.000401
vn -0.475225 0.879864 0.000401
vn -0.657982 0.635622 0.403789
vn 0.000000 0.810503 0.585734
vn 0.000000 1.000000 0.000183
vn 0.658270 -0.635919 0.402850
vn 0.475118 -0.879922 -0.000126
vn 0.658392 -0.636261 -0.402109
vn 0.893083 -0.449892 0.000405
vn 0.893382 0.449298 0.000578
vn 0.658914 0.635628 -0.402256
vn 0.475225 0.879864 0.000401
vn 0.657981 0.635622 0.403789
vn -0.658270 -0.635919 0.402850
vn -0.893083 -0.449892 0.000405
vn -0.658392 -0.636261 -0.402109
vn -0.475118 -0.879922 -0.000126
vn -0.657982 0.635622 0.403789
vn -0.475225 0.879864 0.000401
vn -0.658914 0.635628 -0.402256
vn -0.893382 0.449298 0.000578
s off
g d15:ZBrushPolyMesh3D
usemtl d15:defaultMat
f 4/1/1 5/2/2 2/3/3 1/4/4
f 5/2/5 6/5/6 3/6/7 2/3/8
f 8/7/9 5/2/10 4/1/11 7/8/12
f 9/9/13 6/5/14 5/2/15 8/7/16
f 13/10/17 14/11/18 11/12/19 10/13/20
f 14/11/21 15/14/22 12/15/23 11/12/24
f 17/16/25 14/11/26 13/10/27 16/17/28
f 18/18/29 15/14/30 14/11/31 17/16/32
f 21/19/33 22/20/34 20/21/35 19/22/36
f 22/20/37 4/23/38 1/24/39 20/21/40
f 24/25/41 22/20/42 21/19/43 23/26/44
f 25/27/45 4/23/46 22/20/47 24/25/48
f 29/28/49 30/29/50 27/30/51 26/31/52
f 30/29/53 31/32/54 28/33/55 27/30/56
f 24/34/57 30/29/58 29/28/59 25/35/60
f 23/36/61 31/32/62 30/29/63 24/34/64
f 15/37/65 33/38/66 32/39/67 12/40/68
f 33/38/69 29/41/70 26/42/71 32/39/72
f 8/43/73 33/38/74 15/37/75 9/44/76
f 7/45/77 29/41/78 33/38/79 8/43/80
f 28/46/81 34/47/82 35/48/83 27/49/84
f 27/49/85 35/48/86 32/50/87 26/51/88
f 34/47/89 10/52/90 11/53/91 35/48/92
f 35/48/93 11/53/94 12/54/95 32/50/96
f 38/55/97 39/56/98 37/57/99 36/58/100
f 39/56/101 21/59/102 19/60/103 37/57/104
f 41/61/105 39/56/106 38/55/107 40/62/108
f 42/63/109 21/59/110 39/56/111 41/61/112
f 1/64/113 2/65/114 43/66/115 20/67/116
f 20/67/117 43/66/118 37/68/119 19/69/120
f 2/65/121 3/70/122 44/71/123 43/66/124
f 43/66/125 44/71/126 36/72/127 37/68/128
f 31/73/129 45/74/130 34/75/131 28/76/132
f 45/74/133 13/77/134 10/78/135 34/75/136
f 41/79/137 45/74/138 31/73/139 42/80/140
f 40/81/141 13/77/142 45/74/143 41/79/144
f 6/82/145 46/83/146 44/84/147 3/85/148
f 46/83/149 38/86/150 36/87/151 44/84/152
f 17/88/153 46/83/154 6/82/155 18/89/156
f 16/90/157 38/86/158 46/83/159 17/88/160
f 4/91/161 25/92/162 29/93/163 7/94/164
f 9/95/165 15/96/166 18/97/167 6/98/168
f 21/99/169 42/100/170 31/101/171 23/102/172
f 38/103/173 16/104/174 13/105/175 40/106/176
